# xmcd
#
# Track frame offsets:
#   150
#   17019
#   31995
#   44462
#   62178
#
# Disc length: 1010 seconds
#
# Revision: 0
# Processed by: cddbd v1.5.2PL0 Copyright (c) Steve Scherf et al.
# Submitted via: GXTranscoder 2.0.1939
#
DISCID=3b03f005
DTITLE=eskobar - a thousand last chances
DYEAR=2004
DGENRE=Pop
TTITLE0=along came this band
TTITLE1=it almost happened to me
TTITLE2=love strikes
TTITLE3=cold night
TTITLE4=bring the action
EXTD=
EXTT0=
EXTT1=
EXTT2=
EXTT3=
EXTT4=
PLAYORDER=
